<svg xmlns="http://www.w3.org/2000/svg" width="200" height="200" viewBox="0 0 200 200">
  <!-- Fork 1 -->
  <g fill="white">
    <rect x="20" y="25" width="3" height="35"/>
    <rect x="14" y="25" width="3" height="15"/>
    <rect x="20" y="25" width="3" height="15"/>
    <rect x="26" y="25" width="3" height="15"/>
    <rect x="14" y="22" width="15" height="5" rx="2"/>
  </g>
  <!-- Knife -->
  <g fill="white">
    <path d="M50 25 L58 25 L58 55 L54 62 L50 55 Z"/>
  </g>
  <!-- Spoon -->
  <g fill="white">
    <ellipse cx="85" cy="30" rx="8" ry="11"/>
    <rect x="81" y="40" width="8" height="22"/>
  </g>
  <!-- Plate -->
  <g fill="none" stroke="white" stroke-width="3">
    <circle cx="140" cy="100" r="28"/>
    <circle cx="140" cy="100" r="18"/>
  </g>
  <!-- Wine glass -->
  <g fill="white">
    <ellipse cx="45" cy="120" rx="12" ry="8"/>
    <rect x="42" y="127" width="6" height="18"/>
    <rect x="36" y="143" width="18" height="4" rx="2"/>
  </g>
  <!-- Fork 2 -->
  <g fill="white">
    <rect x="110" y="150" width="3" height="35"/>
    <rect x="104" y="150" width="3" height="15"/>
    <rect x="110" y="150" width="3" height="15"/>
    <rect x="116" y="150" width="3" height="15"/>
    <rect x="104" y="147" width="15" height="5" rx="2"/>
  </g>
  <!-- Chef hat -->
  <g fill="white">
    <ellipse cx="170" cy="45" rx="18" ry="12"/>
    <rect x="155" y="45" width="30" height="20" rx="3"/>
  </g>
</svg>